<mxfile host="app.diagrams.net" modified="2023-12-11T11:21:47.133Z" agent="Mozilla/5.0 (Windows NT 10.0; Win64; x64) AppleWebKit/537.36 (KHTML, like Gecko) Chrome/120.0.0.0 Safari/537.36" version="22.1.7" etag="DDEV9tz1-J7jqJRcL8w-" type="github">
  <diagram name="第 1 页" id="AZRbn49_BJudQYwOi02-">
    <mxGraphModel>
      <root>
        <mxCell id="0" />
        <mxCell id="1" parent="0" />
      </root>
    </mxGraphModel>
  </diagram>
</mxfile>
